<svg width="500" height="500" viewBox="0 0 500 500" fill="none" xmlns="http://www.w3.org/2000/svg">
  <rect width="500" height="500" rx="120" fill="white"/>
  <path d="M150 180C150 157.909 167.909 140 190 140H310C332.091 140 350 157.909 350 180V220C350 242.091 332.091 260 310 260H190C167.909 260 150 277.909 150 300V320C150 342.091 167.909 360 190 360H310C332.091 360 350 342.091 350 320" stroke="#1A73E8" stroke-width="40" stroke-linecap="round"/>
  <circle cx="250" cy="250" r="230" stroke="#F8F9FA" stroke-width="20"/>
  <path d="M350 140L380 110" stroke="#EA4335" stroke-width="25" stroke-linecap="round"/>
  <path d="M150 360L120 390" stroke="#FBBC05" stroke-width="25" stroke-linecap="round"/>
  <circle cx="380" cy="110" r="15" fill="#34A853"/>
</svg>